<?xml version="1.0" encoding="UTF-8"?>
<svg width="359px" height="431px" viewBox="0 0 359 431" version="1.1" xmlns="http://www.w3.org/2000/svg" xmlns:xlink="http://www.w3.org/1999/xlink">
    <!-- Generator: Sketch 42 (36781) - http://www.bohemiancoding.com/sketch -->
    <title>evo</title>
    <desc>Created with Sketch.</desc>
    <defs></defs>
    <g id="Identidad-ActualidadBlog-2017" stroke="none" stroke-width="1" fill="none" fill-rule="evenodd">
        <g id="Androidsis" transform="translate(-77.000000, -41.000000)" fill="#74A121">
            <g id="evo">
                <g transform="translate(77.000000, 41.000000)">
                    <path d="M207.041365,352.036839 L156.737462,352.036839 L156.737462,406.140911 C156.737462,419.871202 145.613606,431 131.889413,431 C118.168712,431 107.041365,419.871202 107.041365,406.140911 L107.041365,352.036839 L77.6957048,352.036839 C70.0106628,352.036839 63.7728718,345.340642 63.7728718,337.081625 L63.7728718,140.955214 C63.7728718,132.696197 70.0106628,126 77.6957048,126 L282.311253,126 C289.996295,126 296.227128,132.696197 296.227128,140.955214 L296.227128,337.081625 C296.227128,345.340642 289.996295,352.036839 282.311253,352.036839 L256.737462,352.036839 L256.737462,406.140911 C256.737462,419.871202 245.613606,431 231.889413,431 C218.168712,431 207.041365,419.871202 207.041365,406.140911 L207.041365,352.036839 Z" id="Combined-Shape"></path>
                    <rect id="Rectangle-76" x="64" y="125" width="232" height="27"></rect>
                    <path d="M236.210328,31.504089 C293.405488,57.1707605 295.707125,119.159685 295.707125,119.159685 L63.9839808,119.159685 C63.9839808,119.159685 65.6147416,56.613525 123.230759,31.1609725 L103.509096,3.31821774 C103.097231,2.73157258 103.694087,1.60367742 104.845913,0.786564516 C105.983779,-0.0235645161 107.254279,-0.215620968 107.669635,0.371024194 L128.062769,29.1663825 C142.051222,23.7837754 159.091041,20.5148744 179.847298,20.5788548 C200.48531,20.642436 217.450975,24.0172522 231.397016,29.4831532 L252.01449,0.371024194 C252.429846,-0.215620968 253.700346,-0.0235645161 254.841702,0.786564516 C255.993529,1.60367742 256.590385,2.73157258 256.175029,3.31821774 L236.210322,31.5040861 Z M142.939971,68.6593145 C142.939971,60.9526129 136.692183,54.7055403 128.992394,54.7055403 C121.289115,54.7055403 115.044817,60.9526129 115.044817,68.6593145 C115.044817,76.3660161 121.289115,82.6130887 128.992394,82.6130887 C136.692183,82.6130887 142.939971,76.3660161 142.939971,68.6593145 Z M244.646288,68.6593145 C244.646288,60.9526129 238.39501,54.7055403 230.698712,54.7055403 C222.995433,54.7055403 216.751135,60.9526129 216.751135,68.6593145 C216.751135,76.3660161 222.995433,82.6130887 230.698712,82.6130887 C238.39501,82.6130887 244.646288,76.3660161 244.646288,68.6593145 Z" id="Combined-Shape"></path>
                    <path d="M358.830731,261.550339 C358.830731,275.280629 347.703385,286.409427 333.979192,286.409427 C320.255,286.409427 309.131144,275.280629 309.131144,261.550339 L309.131144,149.832847 C309.131144,136.102556 320.255,124.970266 333.979192,124.970266 C347.703385,124.970266 358.830731,136.102556 358.830731,149.832847 L358.830731,261.550339" id="Fill-3"></path>
                    <path d="M50.5599615,261.550339 C50.5599615,275.280629 39.4361058,286.409427 25.7084231,286.409427 C11.9877212,286.409427 0.860375,275.280629 0.860375,261.550339 L0.860375,149.832847 C0.860375,136.102556 11.9877212,124.970266 25.7084231,124.970266 C39.4361058,124.970266 50.5599615,136.102556 50.5599615,149.832847 L50.5599615,261.550339" id="Fill-4"></path>
                </g>
            </g>
        </g>
    </g>
</svg>